<?xml version="1.0" encoding="UTF-8" standalone="no"?>
<!DOCTYPE svg PUBLIC "-//W3C//DTD SVG 1.1//EN" "http://www.w3.org/Graphics/SVG/1.1/DTD/svg11.dtd">
<svg width="100%" height="100%" viewBox="0 0 440 582" version="1.1" xmlns="http://www.w3.org/2000/svg" xmlns:xlink="http://www.w3.org/1999/xlink" xml:space="preserve" xmlns:serif="http://www.serif.com/" style="fill-rule:evenodd;clip-rule:evenodd;stroke-linejoin:round;stroke-miterlimit:2;">
    <g transform="matrix(1,0,0,1,-364.407,3.29661)">
        <g>
            <g transform="matrix(1.88727,0,0,2.88378,-275.347,-96.433)">
                <path d="M572.034,32.297L338.983,32.297L528.028,233.992L572.034,233.992L572.034,32.297Z" style="fill:white;"/>
            </g>
            <g transform="matrix(1.88727,0,0,3.26613,-256.703,-108.782)">
                <path d="M551.378,62.258C551.378,59.897 548.067,57.984 543.982,57.984C521.499,57.984 453.725,57.984 424.493,57.984C421.778,57.984 419.281,58.844 417.988,60.223C416.696,61.603 416.815,63.281 418.3,64.595C440.876,84.573 508.629,144.528 537.789,170.332C539.578,171.915 542.955,172.631 546.091,172.091C549.228,171.552 551.378,169.886 551.378,167.995L551.378,62.258Z" style="fill:rgb(255,0,4);"/>
            </g>
            <g transform="matrix(0.902973,0,0,0.866615,99.1331,14.8049)">
                <text x="460.169px" y="53.394px" style="font-family:'ArialMT', 'Arial', sans-serif;font-size:34.31px;">MALIK HARRISON</text>
            </g>
        </g>
    </g>
</svg>
